#N canvas 1102 788 450 300 10;
#X obj 67 34 gemhead;
#X obj 431 35 loadbang;
#X obj 534 35 loadbang;
#X obj 324 35 loadbang;
#X obj 67 63 color 1 1 1;
#X obj 115 260 cone;
#X msg 324 63 draw line;
#X obj 611 31 loadbang;
#X msg 431 63 width 2;
#X msg 534 63 0.3;
#X msg 612 59 4;
#X connect 0 0 4 0;
#X connect 1 0 8 0;
#X connect 2 0 9 0;
#X connect 3 0 6 0;
#X connect 4 0 5 0;
#X connect 6 0 5 0;
#X connect 7 0 10 0;
#X connect 8 0 5 0;
#X connect 9 0 5 1;
#X connect 10 0 5 2;
