#N canvas 1 119 1920 974 12;
#X obj 517 11 bng 15 250 50 0 empty empty empty 17 7 0 10 -262144 -1
-1;
#X obj 655 26 bng 15 250 50 0 empty empty empty 17 7 0 10 -262144 -1
-1;
#X obj 814 11 bng 15 250 50 0 empty empty empty 17 7 0 10 -262144 -1
-1;
#X obj 978 23 bng 15 250 50 0 empty empty empty 17 7 0 10 -262144 -1
-1;
#X obj 1115 16 bng 15 250 50 0 empty empty empty 17 7 0 10 -262144
-1 -1;
#X obj 1235 11 bng 15 250 50 0 empty empty empty 17 7 0 10 -262144
-1 -1;
#X obj 560 88 \$2;
#X obj 627 88 \$3;
#X obj 697 88 \$4;
#X obj 783 86 \$5;
#X obj 852 86 \$6;
#X obj 946 88 \$7;
#X obj 1016 88 \$8;
#X obj 1085 85 \$9;
#X obj 1155 85 \$10;
#X obj 1215 85 \$11;
#X obj 1273 85 \$12;
#X obj 872 -93 loadbang;
#X obj 495 136 gb-speaker;
#X obj 636 134 gb-speaker;
#X obj 789 133 gb-speaker;
#X obj 950 138 gb-speaker;
#X obj 1086 133 gb-speaker;
#X obj 1216 137 gb-speaker;
#X obj 497 88 \$1;
#X obj 1410 21 bng 15 250 50 0 empty empty empty 17 7 0 10 -262144
-1 -1;
#X obj 1530 16 bng 15 250 50 0 empty empty empty 17 7 0 10 -262144
-1 -1;
#X obj 1381 138 gb-speaker;
#X obj 1511 142 gb-speaker;
#X obj 1380 91 \$13;
#X obj 1450 90 \$14;
#X obj 1510 90 \$15;
#X obj 1569 92 \$16;
#X connect 0 0 6 0;
#X connect 0 0 24 0;
#X connect 1 0 7 0;
#X connect 1 0 8 0;
#X connect 2 0 9 0;
#X connect 2 0 10 0;
#X connect 3 0 11 0;
#X connect 3 0 12 0;
#X connect 4 0 13 0;
#X connect 4 0 14 0;
#X connect 5 0 15 0;
#X connect 5 0 16 0;
#X connect 6 0 18 1;
#X connect 7 0 19 0;
#X connect 8 0 19 1;
#X connect 9 0 20 0;
#X connect 10 0 20 1;
#X connect 11 0 21 0;
#X connect 12 0 21 1;
#X connect 13 0 22 0;
#X connect 14 0 22 1;
#X connect 15 0 23 0;
#X connect 16 0 23 1;
#X connect 17 0 3 0;
#X connect 17 0 0 0;
#X connect 17 0 1 0;
#X connect 17 0 2 0;
#X connect 17 0 4 0;
#X connect 17 0 5 0;
#X connect 17 0 25 0;
#X connect 17 0 26 0;
#X connect 24 0 18 0;
#X connect 25 0 29 0;
#X connect 25 0 30 0;
#X connect 26 0 31 0;
#X connect 26 0 32 0;
#X connect 29 0 27 0;
#X connect 30 0 27 1;
#X connect 31 0 28 0;
#X connect 32 0 28 1;
