#N canvas 0 106 1920 974 10;
#X obj 26 254 gemhead;
#X obj 461 377 loadbang;
#X obj 251 377 loadbang;
#X obj 26 323 translate 1 1 0 0;
#X obj 26 358 translate 1 0 1 0;
#X msg 461 405 0.1;
#X msg 251 405 draw fill;
#X obj 48 87 inlet;
#X obj 151 92 inlet;
#X obj 26 283 color 1 1 1;
#X obj 26 604 cube;
#X obj 358 107 loadbang;
#X msg 358 405 width 3;
#X connect 0 0 9 0;
#X connect 1 0 5 0;
#X connect 2 0 6 0;
#X connect 3 0 4 0;
#X connect 4 0 10 0;
#X connect 5 0 10 1;
#X connect 6 0 10 0;
#X connect 7 0 3 1;
#X connect 8 0 4 1;
#X connect 9 0 3 0;
#X connect 11 0 12 0;
#X connect 12 0 10 0;
