#N canvas 1 119 1920 974 10;
#X obj 121 292 poltocar;
#X obj 216 274 * 3.1415;
#X obj 216 251 / 180;
#X obj 216 227 - 90;
#X obj 36 660 gemhead;
#X msg 301 702 draw line;
#X obj 408 674 loadbang;
#X obj 511 674 loadbang;
#X obj 301 674 loadbang;
#X msg 511 702 0.1;
#X obj 166 362 + 0;
#X obj 121 359 + 0;
#X obj 36 689 color \$2 \$3 \$4;
#X msg 408 702 width 3;
#X obj 166 338 * -1;
#X obj 92 899 cylinder;
#X obj 85 755 translate 1 1 0 0;
#X obj 121 336 * 1;
#X obj 85 790 translate 1 0 1 0;
#X obj 165 152 route \$1;
#X msg 101 233 2;
#X obj 78 46 r spatial_data;
#X obj 78 81 routeOSC /spatial/spread /spatial/azim;
#X connect 0 0 17 0;
#X connect 0 1 14 0;
#X connect 1 0 0 1;
#X connect 2 0 1 0;
#X connect 3 0 2 0;
#X connect 4 0 12 0;
#X connect 5 0 15 0;
#X connect 6 0 13 0;
#X connect 7 0 9 0;
#X connect 8 0 5 0;
#X connect 9 0 15 1;
#X connect 10 0 18 1;
#X connect 11 0 16 1;
#X connect 12 0 16 0;
#X connect 13 0 15 0;
#X connect 14 0 10 0;
#X connect 16 0 18 0;
#X connect 17 0 11 0;
#X connect 18 0 15 0;
#X connect 19 0 3 0;
#X connect 19 0 20 0;
#X connect 20 0 0 0;
#X connect 21 0 22 0;
#X connect 22 1 19 0;
