#N canvas 950 173 1920 974 10;
#X obj 121 292 poltocar;
#X obj 36 660 gemhead;
#X obj 166 362 + 0;
#X obj 121 359 + 0;
#X obj 36 689 color \$2 \$3 \$4;
#X obj 166 338 * -1;
#X obj 36 743 translate 1 1 0 0;
#X obj 121 336 * 1;
#X obj 36 778 translate 1 0 1 0;
#X obj 78 46 r spatial_data;
#X obj 78 81 routeOSC /source/aed;
#X obj 78 106 route \$1;
#X obj 78 129 unpack f f f;
#X obj 553 315 loadbang;
#X obj 85 197 - 1.6;
#X obj 92 899 sphere;
#X text 718 589 The smoothness;
#X msg 687 589 20;
#X floatatom 495 372 5 0 0 0 - - -, f 5;
#X obj 495 445 max 0.05;
#X obj 495 468 min 0.5;
#X obj 495 394 + 1;
#X obj 495 417 * 0.1;
#X msg 353 535 draw line;
#X msg 553 338 0;
#X connect 0 0 7 0;
#X connect 0 1 5 0;
#X connect 1 0 4 0;
#X connect 2 0 8 1;
#X connect 3 0 6 1;
#X connect 4 0 6 0;
#X connect 5 0 2 0;
#X connect 6 0 8 0;
#X connect 7 0 3 0;
#X connect 8 0 15 0;
#X connect 9 0 10 0;
#X connect 10 0 11 0;
#X connect 11 0 12 0;
#X connect 12 0 14 0;
#X connect 12 1 18 0;
#X connect 12 2 0 0;
#X connect 13 0 24 0;
#X connect 14 0 0 1;
#X connect 17 0 15 2;
#X connect 18 0 21 0;
#X connect 19 0 20 0;
#X connect 20 0 15 1;
#X connect 20 0 17 0;
#X connect 20 0 23 0;
#X connect 21 0 22 0;
#X connect 22 0 19 0;
#X connect 23 0 15 0;
#X connect 24 0 18 0;
