#N canvas 639 119 1920 974 10;
#X obj 222 285 poltocar;
#X obj 119 593 gemhead;
#X obj 274 355 + 0;
#X obj 222 355 + 0;
#X obj 119 622 color \$2 \$3 \$4;
#X obj 274 331 * -1;
#X obj 170 651 translate 1 1 0 0, f 18;
#X obj 222 332 * 1;
#X obj 238 689 translate 1 0 1 0, f 19;
#X obj 274 40 r spatial_data;
#X obj 274 75 routeOSC /source/aed;
#X obj 274 100 route \$1;
#X obj 274 123 unpack f f f, f 39;
#X obj 274 191 - 1.6;
#X obj 288 893 sphere;
#X text 818 517 The smoothness;
#X obj 509 359 tan;
#X obj 499 419 *;
#X floatatom 499 457 5 0 0 0 - - -, f 5;
#X floatatom 446 367 5 0 0 0 - - -, f 5;
#X obj 499 488 + 1;
#X floatatom 222 422 5 0 0 0 - - -, f 5;
#X floatatom 274 421 5 0 0 0 - - -, f 5;
#X msg 787 517 30;
#X obj 222 389 * 0.6;
#X obj 274 389 * 0.6;
#X obj 499 511 * 0.25;
#X text 421 509 size;
#X obj 499 534 min 2;
#X obj 499 557 max -2;
#X connect 0 0 7 0;
#X connect 0 1 5 0;
#X connect 1 0 4 0;
#X connect 2 0 25 0;
#X connect 3 0 24 0;
#X connect 4 0 6 0;
#X connect 5 0 2 0;
#X connect 6 0 8 0;
#X connect 7 0 3 0;
#X connect 8 0 14 0;
#X connect 9 0 10 0;
#X connect 10 0 11 0;
#X connect 11 0 12 0;
#X connect 11 0 23 0;
#X connect 12 0 13 0;
#X connect 12 1 16 0;
#X connect 12 1 19 0;
#X connect 12 2 0 0;
#X connect 12 2 17 1;
#X connect 13 0 0 1;
#X connect 16 0 17 0;
#X connect 17 0 18 0;
#X connect 18 0 20 0;
#X connect 19 0 16 0;
#X connect 20 0 26 0;
#X connect 21 0 6 1;
#X connect 22 0 8 1;
#X connect 23 0 14 2;
#X connect 24 0 21 0;
#X connect 25 0 22 0;
#X connect 26 0 28 0;
#X connect 28 0 29 0;
#X connect 29 0 14 1;
