#N canvas 639 119 1920 974 10;
#X obj 317 286 poltocar;
#X obj 143 593 gemhead;
#X obj 362 356 + 0;
#X obj 317 356 + 0;
#X obj 143 622 color \$2 \$3 \$4;
#X obj 362 332 * -1;
#X obj 194 651 translate 1 1 0 0;
#X obj 317 333 * 1;
#X obj 252 689 translate 1 0 1 0;
#X obj 274 40 r spatial_data;
#X obj 274 75 routeOSC /source/aed;
#X obj 274 100 route \$1;
#X obj 274 123 unpack f f f;
#X obj 281 191 - 1.6;
#X obj 288 893 sphere;
#X text 818 517 The smoothness;
#X msg 685 517 draw line;
#X obj 509 359 tan;
#X obj 499 419 *;
#X floatatom 491 470 5 0 0 0 - - -, f 5;
#X floatatom 446 367 5 0 0 0 - - -, f 5;
#X obj 491 552 max 0.05;
#X obj 491 575 min 0.5;
#X obj 491 501 + 1;
#X floatatom 305 434 5 0 0 0 - - -, f 5;
#X floatatom 355 452 5 0 0 0 - - -, f 5;
#X msg 787 517 30;
#X obj 314 390 * 0.2;
#X obj 364 408 * 0.2;
#X obj 491 524 * 0.05;
#X connect 0 0 7 0;
#X connect 0 1 5 0;
#X connect 1 0 4 0;
#X connect 2 0 28 0;
#X connect 3 0 27 0;
#X connect 4 0 6 0;
#X connect 5 0 2 0;
#X connect 6 0 8 0;
#X connect 7 0 3 0;
#X connect 8 0 14 0;
#X connect 9 0 10 0;
#X connect 10 0 11 0;
#X connect 11 0 12 0;
#X connect 11 0 16 0;
#X connect 11 0 26 0;
#X connect 12 0 13 0;
#X connect 12 1 17 0;
#X connect 12 1 20 0;
#X connect 12 2 0 0;
#X connect 12 2 18 1;
#X connect 13 0 0 1;
#X connect 16 0 14 0;
#X connect 17 0 18 0;
#X connect 18 0 19 0;
#X connect 19 0 23 0;
#X connect 20 0 17 0;
#X connect 21 0 22 0;
#X connect 22 0 14 1;
#X connect 23 0 29 0;
#X connect 24 0 6 1;
#X connect 25 0 8 1;
#X connect 26 0 14 2;
#X connect 27 0 24 0;
#X connect 28 0 25 0;
#X connect 29 0 21 0;
