#N canvas 3012 545 1196 702 10;
#X msg 116 586 vis 1 \, editmode 1;
#X floatatom 378 335 5 0 0 0 - - -, f 5;
#X obj 378 229 tgl 15 0 empty empty empty 17 7 0 10 -262144 -1 -1 0
1;
#X obj 307 158 loadbang;
#X msg 495 211 0;
#X obj 264 657 s pd-angles;
#X msg 204 254 \; pd-sub clear;
#X obj 307 181 t b b;
#X text 363 93 This is needed for dynamically creating the 'pd sub'
patch fora all channels:;
#X obj 264 438 * 40;
#X text 22 79 SUBPATCH for each partial;
#N canvas 2782 437 1920 974 sub 1;
#X obj 100 200 sc_spat_plotter 4 0.25 0.8125 1;
#X obj 100 240 sc_spat_plotter 5 0.3125 0.75 1;
#X obj 100 280 sc_spat_plotter 6 0.375 0.6875 1;
#X obj 100 320 sc_spat_plotter 7 0.4375 0.625 1;
#X obj 100 360 sc_spat_plotter 8 0.5 0.5625 1;
#X obj 100 400 sc_spat_plotter 9 0.5625 0.5 1;
#X obj 100 440 sc_spat_plotter 10 0.625 0.4375 1;
#X obj 100 480 sc_spat_plotter 11 0.6875 0.375 1;
#X obj 100 520 sc_spat_plotter 12 0.75 0.3125 1;
#X obj 100 560 sc_spat_plotter 13 0.8125 0.25 1;
#X obj 100 120 sc_spat_plotter 2 0.125 0.9375 1;
#X obj 100 160 sc_spat_plotter 3 0.1875 0.875 1;
#X obj 100 600 sc_spat_plotter 14 0.875 0.1875 1;
#X obj 100 640 sc_spat_plotter 15 0.9375 0.125 1;
#X obj 100 40 sc_spat_plotter 0 0 1 1;
#X obj 100 80 sc_spat_plotter 1 0.0625 1 1;
#X restore 25 97 pd sub;
#X obj 378 253 metro 10;
#X obj 378 357 - 0;
#X obj 264 530 pack i i f f, f 58;
#X msg 609 440 1;
#X obj 609 463 -;
#X floatatom 494 466 5 0 0 0 - - -, f 5;
#X floatatom 609 486 5 0 0 0 - - -, f 5;
#X msg 264 583 \; pd-sub obj 100 \$1 sc_spat_plotter \$2 \$3 \$4 1
;
#X obj 494 443 / \$1;
#X obj 609 418 / \$1;
#X obj 625 355 moses \$1;
#X obj 378 302 i 0;
#X text 196 436 Position;
#X obj 540 367 + 1;
#X connect 0 0 5 0;
#X connect 1 0 9 0;
#X connect 1 0 13 0;
#X connect 2 0 12 0;
#X connect 3 0 7 0;
#X connect 4 0 2 0;
#X connect 7 0 6 0;
#X connect 7 1 2 0;
#X connect 9 0 14 0;
#X connect 12 0 23 0;
#X connect 13 0 14 1;
#X connect 13 0 20 0;
#X connect 13 0 21 0;
#X connect 14 0 19 0;
#X connect 15 0 16 0;
#X connect 16 0 18 0;
#X connect 17 0 14 2;
#X connect 18 0 14 3;
#X connect 19 0 5 0;
#X connect 20 0 17 0;
#X connect 21 0 15 0;
#X connect 21 0 16 1;
#X connect 22 0 25 0;
#X connect 22 1 4 0;
#X connect 23 0 1 0;
#X connect 23 0 22 0;
#X connect 25 0 23 1;
