#N canvas 1192 220 1196 702 10;
#X msg 280 470 vis 1 \, editmode 1;
#X obj 343 275 + 1;
#X floatatom 305 299 5 0 0 0 - - -, f 5;
#X obj 305 223 tgl 15 0 empty empty empty 17 7 0 10 -262144 -1 -1 0
1;
#X obj 234 152 loadbang;
#X msg 422 205 0;
#X obj 417 579 s pd-angles;
#X msg 192 271 \; pd-sub clear;
#X obj 234 175 t b b;
#X text 363 93 This is needed for dynamically creating the 'pd sub'
patch fora all channels:;
#X obj 264 346 * 40;
#X text 22 79 SUBPATCH for each partial;
#N canvas 639 261 1920 974 sub 0;
#X obj 100 80 sc_spat_plotter 0.5 0.0416667 1 1;
#X obj 100 120 sc_spat_plotter 0.5 0.0833333 0.958333 1;
#X obj 100 160 sc_spat_plotter 0.5 0.125 0.916667 1;
#X obj 100 200 sc_spat_plotter 0.5 0.166667 0.875 1;
#X obj 100 240 sc_spat_plotter 0.5 0.208333 0.833333 1;
#X obj 100 280 sc_spat_plotter 0.5 0.25 0.791667 1;
#X obj 100 320 sc_spat_plotter 0.5 0.291667 0.75 1;
#X obj 100 360 sc_spat_plotter 0.5 0.333333 0.708333 1;
#X obj 100 400 sc_spat_plotter 0.5 0.375 0.666667 1;
#X obj 100 440 sc_spat_plotter 0.5 0.416667 0.625 1;
#X obj 100 480 sc_spat_plotter 0.5 0.458333 0.583333 1;
#X obj 100 520 sc_spat_plotter 0.5 0.5 0.541667 1;
#X obj 100 560 sc_spat_plotter 0.5 0.541667 0.5 1;
#X obj 100 600 sc_spat_plotter 0.5 0.583333 0.458333 1;
#X obj 100 640 sc_spat_plotter 0.5 0.625 0.416667 1;
#X obj 100 680 sc_spat_plotter 0.5 0.666667 0.375 1;
#X obj 100 720 sc_spat_plotter 0.5 0.708333 0.333333 1;
#X obj 100 760 sc_spat_plotter 0.5 0.75 0.291667 1;
#X obj 100 800 sc_spat_plotter 0.5 0.791667 0.25 1;
#X obj 100 840 sc_spat_plotter 0.5 0.833333 0.208333 1;
#X obj 100 880 sc_spat_plotter 0.5 0.875 0.166667 1;
#X obj 100 920 sc_spat_plotter 0.5 0.916667 0.125 1;
#X restore 25 97 pd sub;
#X obj 305 247 metro 10;
#X obj 377 275 moses 24;
#X obj 305 321 - 0;
#X obj 305 276 i 1;
#X obj 447 357 / 24;
#X obj 416 419 pack i i f f, f 26;
#X obj 504 328 / 24;
#X msg 504 350 1;
#X obj 504 373 -;
#X floatatom 447 380 5 0 0 0 - - -, f 5;
#X floatatom 504 396 5 0 0 0 - - -, f 5;
#X msg 433 513 \; pd-sub obj 100 \$1 sc_spat_plotter \$2 \$3 \$4 1
;
#X connect 0 0 6 0;
#X connect 1 0 14 0;
#X connect 2 0 10 0;
#X connect 2 0 15 0;
#X connect 3 0 13 0;
#X connect 4 0 8 0;
#X connect 5 0 3 0;
#X connect 8 0 7 0;
#X connect 8 1 3 0;
#X connect 10 0 18 0;
#X connect 13 0 16 0;
#X connect 14 0 16 1;
#X connect 14 1 5 0;
#X connect 15 0 17 0;
#X connect 15 0 18 1;
#X connect 15 0 19 0;
#X connect 16 0 2 0;
#X connect 16 0 1 0;
#X connect 17 0 18 2;
#X connect 17 0 22 0;
#X connect 18 0 24 0;
#X connect 19 0 20 0;
#X connect 19 0 21 1;
#X connect 20 0 21 0;
#X connect 21 0 18 3;
#X connect 21 0 23 0;
#X connect 24 0 6 0;
