#N canvas 702 138 1196 702 10;
#X msg 562 300 vis 1 \, editmode 1;
#X obj 343 275 + 1;
#X floatatom 305 299 5 0 0 0 - - -, f 5;
#X obj 305 223 tgl 15 0 empty empty empty 17 7 0 10 -262144 -1 -1 0
1;
#X obj 234 152 loadbang;
#X msg 422 205 0;
#X obj 441 400 pack i i;
#X obj 584 370 s pd-angles;
#X msg 192 271 \; pd-sub clear;
#X obj 234 175 t b b;
#X text 363 93 This is needed for dynamically creating the 'pd sub'
patch fora all channels:;
#X obj 254 389 * 40;
#X text 22 79 SUBPATCH for each partial;
#N canvas 1033 285 1920 974 sub 0;
#X obj 100 40 sc_spat_plotter 0 0 0 1;
#X obj 100 80 sc_spat_plotter 1 0 0 1;
#X obj 100 120 sc_spat_plotter 2 0 0 1;
#X obj 100 160 sc_spat_plotter 3 0 0 1;
#X obj 100 200 sc_spat_plotter 4 0 0 1;
#X obj 100 240 sc_spat_plotter 5 0 0 1;
#X obj 100 280 sc_spat_plotter 6 0 0 1;
#X obj 100 320 sc_spat_plotter 7 0 0 1;
#X obj 100 360 sc_spat_plotter 8 0 0 1;
#X obj 100 400 sc_spat_plotter 9 0 0 1;
#X obj 100 440 sc_spat_plotter 10 0 0 1;
#X obj 100 480 sc_spat_plotter 11 0 0 1;
#X obj 100 520 sc_spat_plotter 12 0 0 1;
#X obj 100 560 sc_spat_plotter 13 0 0 1;
#X obj 100 600 sc_spat_plotter 14 0 0 1;
#X obj 100 640 sc_spat_plotter 15 0 0 1;
#X obj 100 680 sc_spat_plotter 16 0 0 1;
#X obj 100 720 sc_spat_plotter 17 0 0 1;
#X obj 100 760 sc_spat_plotter 18 0 0 1;
#X obj 100 800 sc_spat_plotter 19 0 0 1;
#X obj 100 840 sc_spat_plotter 20 0 0 1;
#X obj 100 880 sc_spat_plotter 21 0 0 1;
#X obj 100 920 sc_spat_plotter 22 0 0 1;
#X restore 25 97 pd sub;
#X obj 305 247 metro 10;
#X msg 584 334 \; pd-sub obj 100 \$1 sc_spat_plotter \$2 0 0 1;
#X obj 377 275 moses 24;
#X obj 305 321 - 0;
#X obj 305 276 i 1;
#X connect 0 0 7 0;
#X connect 1 0 16 0;
#X connect 2 0 11 0;
#X connect 2 0 17 0;
#X connect 3 0 14 0;
#X connect 4 0 9 0;
#X connect 5 0 3 0;
#X connect 6 0 15 0;
#X connect 9 0 8 0;
#X connect 9 1 3 0;
#X connect 11 0 6 0;
#X connect 14 0 18 0;
#X connect 15 0 7 0;
#X connect 16 0 18 1;
#X connect 16 1 5 0;
#X connect 17 0 6 1;
#X connect 18 0 2 0;
#X connect 18 0 1 0;
