#N canvas 1273 119 1196 702 10;
#X msg 116 556 vis 1 \, editmode 1;
#X obj 416 281 + 1;
#X floatatom 378 305 5 0 0 0 - - -, f 5;
#X obj 378 229 tgl 15 0 empty empty empty 17 7 0 10 -262144 -1 -1 0
1;
#X obj 307 158 loadbang;
#X msg 495 211 0;
#X obj 264 627 s pd-angles;
#X msg 204 254 \; pd-sub clear;
#X obj 307 181 t b b;
#X text 363 93 This is needed for dynamically creating the 'pd sub'
patch fora all channels:;
#X obj 264 408 * 40;
#X text 22 79 SUBPATCH for each partial;
#N canvas 639 206 1920 974 sub 0;
#X obj 100 40 sc_spat_plotter 0 0 1 1;
#X obj 100 80 sc_spat_plotter 1 0.125 1 1;
#X obj 100 120 sc_spat_plotter 2 0.25 0.875 1;
#X obj 100 160 sc_spat_plotter 3 0.375 0.75 1;
#X obj 100 200 sc_spat_plotter 4 0.5 0.625 1;
#X obj 100 240 sc_spat_plotter 5 0.625 0.5 1;
#X obj 100 280 sc_spat_plotter 6 0.75 0.375 1;
#X restore 25 97 pd sub;
#X obj 378 253 metro 10;
#X obj 378 327 - 0;
#X obj 264 500 pack i i f f, f 58;
#X msg 609 410 1;
#X obj 609 433 -;
#X floatatom 494 436 5 0 0 0 - - -, f 5;
#X floatatom 609 456 5 0 0 0 - - -, f 5;
#X msg 264 553 \; pd-sub obj 100 \$1 sc_spat_plotter \$2 \$3 \$4 1
;
#X obj 494 413 / \$1;
#X obj 609 388 / \$1;
#X obj 450 281 moses \$1;
#X obj 378 282 i 0;
#X text 196 406 Position;
#X connect 0 0 6 0;
#X connect 1 0 23 0;
#X connect 2 0 10 0;
#X connect 2 0 14 0;
#X connect 3 0 13 0;
#X connect 4 0 8 0;
#X connect 5 0 3 0;
#X connect 8 0 7 0;
#X connect 8 1 3 0;
#X connect 10 0 15 0;
#X connect 13 0 24 0;
#X connect 14 0 15 1;
#X connect 14 0 21 0;
#X connect 14 0 22 0;
#X connect 15 0 20 0;
#X connect 16 0 17 0;
#X connect 17 0 19 0;
#X connect 18 0 15 2;
#X connect 19 0 15 3;
#X connect 20 0 6 0;
#X connect 21 0 18 0;
#X connect 22 0 16 0;
#X connect 22 0 17 1;
#X connect 23 0 24 1;
#X connect 23 1 5 0;
#X connect 24 0 2 0;
#X connect 24 0 1 0;
