#N canvas 927 371 1143 925 10;
#X obj 328 380 udpsend;
#X msg 398 338 disconnect;
#X floatatom 26 179 5 0 0 0 - - -;
#X obj 278 301 packOSC;
#X floatatom 278 178 5 0 0 0 - - -;
#X floatatom 530 173 5 0 0 0 - - -;
#X text 245 124 Set source 1 in AED:;
#X floatatom 147 178 5 0 0 0 - - -;
#X msg 26 225 /source/azim 0 \$1;
#X msg 147 224 /source/azim 1 \$1;
#X msg 278 224 /source/elev 0 \$1;
#X floatatom 394 178 5 0 0 0 - - -;
#X msg 394 224 /source/elev 1 \$1;
#X msg 530 219 /source/dist 0 \$1;
#X floatatom 574 193 5 0 0 0 - - -;
#X msg 574 239 /source/dist 1 \$1;
#X msg 395 312 connect localhost 57120;
#X text 29 37 Patch for testing remote control of the SC servers.;
#X connect 1 0 0 0;
#X connect 2 0 8 0;
#X connect 3 0 0 0;
#X connect 4 0 10 0;
#X connect 5 0 13 0;
#X connect 7 0 9 0;
#X connect 8 0 3 0;
#X connect 9 0 3 0;
#X connect 10 0 3 0;
#X connect 11 0 12 0;
#X connect 12 0 3 0;
#X connect 13 0 3 0;
#X connect 14 0 15 0;
#X connect 15 0 3 0;
#X connect 16 0 0 0;
