#N canvas 1045 213 687 517 10;
#X obj 328 380 udpsend;
#X msg 398 338 disconnect;
#X floatatom 128 176 5 0 0 0 - - -, f 5;
#X obj 278 301 packOSC;
#X floatatom 278 176 5 0 0 0 - - -, f 5;
#X floatatom 420 176 5 0 0 0 - - -, f 5;
#X text 29 37 Patch for testing remote control of the binaural server.
;
#X text 245 124 Set source 1 in AED:;
#X msg 398 312 connect localhost 57121;
#X msg 278 224 /source/elev 4 \$1;
#X msg 420 224 /source/dist 4 \$1;
#X msg 29 246 /source/azim 22 \$1;
#X msg 147 244 /source/azim 23 \$1;
#X connect 1 0 0 0;
#X connect 2 0 11 0;
#X connect 2 0 12 0;
#X connect 3 0 0 0;
#X connect 4 0 9 0;
#X connect 5 0 10 0;
#X connect 8 0 0 0;
#X connect 9 0 3 0;
#X connect 10 0 3 0;
#X connect 11 0 3 0;
#X connect 12 0 3 0;
