#N canvas 1045 246 1159 990 10;
#X obj 549 870 udpsend;
#X msg 619 802 connect localhost 57120;
#X msg 621 828 disconnect;
#X floatatom 222 216 5 0 0 0 - - -, f 5;
#X obj 348 675 packOSC;
#X floatatom 372 212 5 0 0 0 - - -, f 5;
#X floatatom 514 208 5 0 0 0 - - -, f 5;
#X msg 222 264 /source/azim 1 \$1;
#X msg 372 260 /source/elev 1 \$1;
#X msg 514 256 /source/dist 1 \$1;
#X connect 1 0 0 0;
#X connect 2 0 0 0;
#X connect 3 0 7 0;
#X connect 4 0 0 0;
#X connect 5 0 8 0;
#X connect 6 0 9 0;
#X connect 7 0 4 0;
#X connect 8 0 4 0;
#X connect 9 0 4 0;
