#N canvas 960 56 960 1024 10;
#N canvas 1 106 450 300 SYNTH 0;
#X floatatom 182 -104 5 0 0 0 - - -;
#X obj 231 -158 *;
#X floatatom 389 -253 5 0 0 0 - - -;
#X obj 314 -210 - 0.5;
#X floatatom 389 -208 5 0 0 0 - - -;
#X obj 197 -60 *;
#X obj -24 286 dac~ 1 2;
#X obj 182 -38 +;
#X obj 255 4 phasor~;
#X obj 416 -122 moses 0.01;
#X obj 255 61 *~;
#X floatatom 424 -50 5 0 0 0 - - -;
#X obj 182 -152 mtof;
#X obj 182 -127 - 100;
#X obj 424 -28 pow 4;
#X floatatom 424 -5 5 0 0 0 - - -;
#X obj 81 6 lop~;
#X text 501 -4 center frequency;
#X text 255 148 q;
#X floatatom 234 167 5 0 0 0 - - -;
#X obj 100 275 env~ 8192;
#X floatatom 100 304 5 0 0 0 - - -;
#X obj 130 206 vcf~ 1;
#X text 171 220 optional argument to initialize q;
#X obj 224 278 env~ 8192;
#X floatatom 224 305 5 0 0 0 - - -;
#X floatatom 459 -255 5 0 0 0 - - -;
#X obj 462 -205 abs;
#X obj 495 -194 -;
#X msg 519 -226 180;
#X floatatom 495 -171 5 0 0 0 - - -;
#X obj 495 -149 abs;
#X floatatom 495 -126 5 0 0 0 - - -;
#X obj 495 -104 / 180;
#X msg 558 -55 \$1 50;
#X obj 495 -35 line~;
#X floatatom 495 -58 5 0 0 0 - - -;
#X obj 495 -81 * 10000;
#X obj 80 142 *~;
#X floatatom 68 -308 5 0 0 0 - - -;
#X floatatom 68 -258 5 0 0 0 - - -;
#X obj 197 -83 * 0;
#X obj 68 -286 / 60;
#X connect 0 0 7 0;
#X connect 0 0 41 0;
#X connect 2 0 3 0;
#X connect 2 0 9 0;
#X connect 3 0 4 0;
#X connect 4 0 5 1;
#X connect 5 0 7 1;
#X connect 7 0 8 0;
#X connect 8 0 10 0;
#X connect 9 0 11 0;
#X connect 9 1 11 0;
#X connect 10 0 22 0;
#X connect 11 0 14 0;
#X connect 12 0 13 0;
#X connect 13 0 0 0;
#X connect 14 0 15 0;
#X connect 15 0 10 1;
#X connect 19 0 22 2;
#X connect 20 0 21 0;
#X connect 22 0 20 0;
#X connect 22 0 38 0;
#X connect 22 1 24 0;
#X connect 24 0 25 0;
#X connect 26 0 27 0;
#X connect 26 0 29 0;
#X connect 27 0 28 0;
#X connect 28 0 30 0;
#X connect 29 0 28 1;
#X connect 30 0 31 0;
#X connect 31 0 32 0;
#X connect 32 0 33 0;
#X connect 33 0 37 0;
#X connect 34 0 35 0;
#X connect 35 0 22 1;
#X connect 37 0 34 0;
#X connect 37 0 36 0;
#X connect 38 0 6 1;
#X connect 38 0 6 0;
#X connect 39 0 42 0;
#X connect 40 0 38 1;
#X connect 41 0 5 0;
#X connect 42 0 40 0;
#X restore 550 593 pd SYNTH;
#X text 105 15 First creation argument: IP-address of the desired device
;
#X obj 353 598 GLOOO_sender;
#X obj 107 45 BINBONG_receiver_new_imu 2;
