#N canvas 0 106 1920 974 10;
#X obj 108 -294 udpreceive 9999;
#X msg 108 -321 port 9999;
#X floatatom -235 90 5 0 0 0 - - -, f 5;
#X floatatom 43 163 5 0 0 0 - - -, f 5;
#X obj 108 -345 loadbang;
#X text -242 75 INTENSITY;
#X text 35 111 NOTE;
#X text 38 144 MOD;
#X obj 67 11 routeOSC /pad/1 /pad/2 /pad/3 /pad/4;
#X text 167 161 PAD;
#X obj 116 191 vsl 22 128 0 1 0 0 \$0-pad_1 empty empty 0 -9 0 10 -4034
-1 -1 417 1;
#X obj 152 191 vsl 22 128 0 1 0 0 \$0-pad_2 empty empty 0 -9 0 10 -4034
-1 -1 135 1;
#X obj 188 191 vsl 22 128 0 1 0 0 \$0-pad_3 empty empty 0 -9 0 10 -4034
-1 -1 589 1;
#X obj 223 191 vsl 22 128 0 1 0 0 \$0-pad_4 empty empty 0 -9 0 10 -4034
-1 -1 0 1;
#X obj 508 193 vsl 22 128 4000 0 0 0 empty empty empty 0 -9 0 10 -257985
-1 -1 0 1;
#X obj 545 193 vsl 22 128 0 300 0 0 empty empty empty 0 -9 0 10 -257985
-1 -1 0 1;
#X obj 306 11 routeOSC /valve/1 /valve/2 /valve/3 /valve/4;
#X text 353 164 VALVES;
#X obj 111 -243 unpackOSC;
#X obj 96 -120 routeOSC /bong/\$1;
#X text 518 168 RIBBON;
#X floatatom 655 208 5 0 0 0 - - -, f 5;
#X obj 824 148 routeOSC /orientation/roll /orientation/pitch /orientation/heading
, f 71;
#X floatatom 705 209 5 0 0 0 - - -, f 5;
#X floatatom 750 209 5 0 0 0 - - -, f 5;
#X obj 655 232 vsl 22 128 -180 180 0 0 empty empty empty 0 -9 0 10
-4160 -1 -1 6319 1;
#X obj 705 231 vsl 22 128 -180 180 0 0 empty empty empty 0 -9 0 10
-4160 -1 -1 6374 1;
#X obj 750 233 vsl 22 128 -180 180 0 0 empty empty empty 0 -9 0 10
-4160 -1 -1 3728 1;
#X text 697 172 AHRS;
#X obj -143 -54 routeOSC /intensity /note /note_pressure, f 47;
#X obj 249 117 bng 15 250 50 0 empty empty Receiving 17 7 0 10 -262144
-1 -1;
#X text 653 184 roll;
#X text 702 186 pitch;
#X text 748 186 head;
#X floatatom 641 129 5 0 0 0 - - -, f 5;
#X floatatom 680 128 5 0 0 0 - - -, f 5;
#X floatatom 722 129 5 0 0 0 - - -, f 5;
#X floatatom 761 129 5 0 0 0 - - -, f 5;
#X text 680 99 Calilbration;
#X text 641 148 sys;
#X obj 845 -19 routeOSC /cal/gyro;
#X obj 883 24 routeOSC /cal/mag;
#X obj 926 77 routeOSC /cal/accel;
#X text 680 147 gyro;
#X text 722 148 mag;
#X text 761 148 accel;
#X obj 748 -51 routeOSC /cal/sys;
#X obj 1058 -98 cnv 111 144 211 empty empty empty 20 12 0 14 -228856
-66577 0;
#X obj 96 -191 list prepend;
#X obj 439 146 tgl 22 0 empty empty empty 17 7 0 10 -159808 -1 -1 1
1;
#X obj 96 -163 route 1;
#X text 400 122 send control data;
#X obj 572 -241 counter;
#X obj 567 -283 bng 15 250 50 0 empty empty empty 17 7 0 10 -262144
-1 -1;
#X floatatom 582 124 5 0 0 0 - - -, f 5;
#X obj 657 -299 metro 1000;
#X obj 686 -343 tgl 15 0 empty empty empty 17 7 0 10 -262144 -1 -1
1 1;
#X obj 690 -138 i;
#X msg 669 -232 set 0;
#X msg 737 -233 0;
#X obj 651 -270 t b b b;
#X obj 821 -353 loadbang;
#X msg 825 -311 1;
#X text 554 140 pcts / sec;
#X obj 280 48 routeOSC /ribbon/position /ribbon/pressure /ribbon/octave
;
#X obj 588 193 vsl 22 128 -5 5 0 0 empty empty empty 0 -9 0 10 -257985
-1 -1 0 1;
#X obj -274 307 r \$0-pad_1;
#X obj -200 307 r \$0-pad_2;
#X obj -131 308 r \$0-pad_3;
#X obj -61 309 r \$0-pad_4;
#X floatatom -274 467 5 0 0 0 - - -, f 5;
#X floatatom -234 468 5 0 0 0 - - -, f 5;
#X floatatom -198 468 5 0 0 0 - - -, f 5;
#X floatatom -66 398 5 0 0 0 - - -, f 5;
#X obj -185 505 +;
#X obj -185 528 +;
#X obj -185 556 +;
#X floatatom -187 582 5 0 0 0 - - -, f 5;
#X floatatom -187 627 5 0 0 0 - - -, f 5;
#X obj -187 604 - 0;
#X obj -187 672 pow 2;
#X obj -37 568 s PAD_front;
#X obj -274 571 s PAD_rear;
#X obj -274 440 max 0;
#X obj -231 441 max 0;
#X obj -138 350 max 0;
#X obj -66 351 max 0;
#X floatatom -274 512 5 0 0 0 - - -, f 5;
#X obj -187 695 line 5;
#X obj -37 512 line 100;
#X obj -274 488 line 100;
#X text 111 411 OUTLET: INTENSITY (0-1);
#X obj -36 536 * 2;
#X obj -274 534 * 2;
#X obj -115 95 s BONG_NOTE;
#X obj -187 731 s BONG_PAD_PRESSURE;
#X obj 1000 486 s BONG_IMU_roll;
#X obj 997 443 s BONG_IMU_pitch;
#X obj 758 813 s BONG_IMU_head;
#X obj 1566 318 float;
#X obj 1550 274 bang;
#X floatatom 1566 341 5 0 0 0 - - -, f 5;
#X obj 1644 316 + 1, f 17;
#X obj -60 -14 select 0;
#X obj -62 34 + 55;
#X obj 310 192 vsl 22 128 0 1 0 0 \$0-valve_1 empty empty 0 -9 0 10
-258113 -1 -1 3 1;
#X obj 346 192 vsl 22 128 0 1 0 0 \$0-valve_2 empty empty 0 -9 0 10
-258113 -1 -1 3 1;
#X obj 382 192 vsl 22 128 0 1 0 0 \$0-valve_3 empty empty 0 -9 0 10
-258113 -1 -1 0 1;
#X obj 418 192 vsl 22 128 0 1 0 0 \$0-valve_4 empty empty 0 -9 0 10
-258113 -1 -1 0 1;
#X floatatom -62 1248 5 0 0 0 - - -, f 5;
#X floatatom 14 1265 5 0 0 0 - - -, f 5;
#X floatatom 99 1313 5 0 0 0 - - -, f 5;
#X floatatom 179 1321 5 0 0 0 - - -, f 5;
#X obj -1 1301 +;
#X obj -1 1355 +;
#X obj -1 1396 +;
#X floatatom -1 1728 5 0 0 0 - - -, f 5;
#X obj -62 1218 max 0;
#X obj 13 1218 max 0;
#X obj 97 1252 max 0;
#X obj 177 1260 max 0;
#X obj -120 1287 > 0.1;
#X obj 63 1498 +;
#X obj 86 1442 > 0.1;
#X obj 121 1554 +;
#X obj 144 1498 > 0.1;
#X obj 121 1582 +;
#X obj 203 1506 > 0.1;
#X obj -1 1648 /;
#X floatatom 121 1605 5 0 0 0 - - -, f 5;
#X obj -2 1780 route 1;
#X obj -1 1750 list prepend 1;
#X obj -1 1694 * 1.5;
#X obj -2 1818 s BONG_VALVE_PRESSURE;
#X obj -1 1671 - 0;
#X obj -120 1178 r \$0-valve_1;
#X obj 60 1075 r \$0-valve_2;
#X obj 149 1126 r \$0-valve_3;
#X obj 280 1186 r \$0-valve_4;
#X obj 271 670 s BONG_RIBBON_POS;
#X text 415 522 pos;
#X text 474 544 force;
#X floatatom 414 498 5 0 0 0 - - -, f 5;
#X floatatom 476 524 5 0 0 0 - - -, f 5;
#X obj 508 329 / 4000;
#X obj 501 454 / 200;
#X obj 424 645 s BONG_RIBBON_FORCE;
#X obj 581 494 s RIBBON_SWIPE;
#X obj -187 649 / 2.5;
#X obj -68 -222 s BONG_COMPLETE;
#X obj 303 -303 inlet;
#X obj 303 -280 unpackOSC;
#X floatatom 749 417 5 0 0 0 - - -, f 5;
#X obj 750 392 + 0;
#X obj 750 369 / 180;
#X connect 0 0 18 0;
#X connect 0 0 53 0;
#X connect 0 0 149 0;
#X connect 1 0 0 0;
#X connect 4 0 1 0;
#X connect 8 0 10 0;
#X connect 8 1 11 0;
#X connect 8 2 12 0;
#X connect 8 3 13 0;
#X connect 8 4 64 0;
#X connect 14 0 144 0;
#X connect 15 0 145 0;
#X connect 16 0 105 0;
#X connect 16 1 106 0;
#X connect 16 2 107 0;
#X connect 16 3 108 0;
#X connect 18 0 30 0;
#X connect 18 0 48 0;
#X connect 19 0 8 0;
#X connect 19 0 16 0;
#X connect 19 0 22 0;
#X connect 19 0 29 0;
#X connect 19 0 46 0;
#X connect 19 0 40 0;
#X connect 19 0 41 0;
#X connect 19 0 42 0;
#X connect 21 0 25 0;
#X connect 22 0 21 0;
#X connect 22 1 23 0;
#X connect 22 2 24 0;
#X connect 23 0 26 0;
#X connect 24 0 27 0;
#X connect 25 0 96 0;
#X connect 26 0 97 0;
#X connect 27 0 154 0;
#X connect 29 0 2 0;
#X connect 29 1 103 0;
#X connect 29 2 3 0;
#X connect 40 0 35 0;
#X connect 41 0 36 0;
#X connect 42 0 37 0;
#X connect 46 0 34 0;
#X connect 48 0 50 0;
#X connect 49 0 48 1;
#X connect 50 0 19 0;
#X connect 52 0 57 1;
#X connect 53 0 52 0;
#X connect 55 0 60 0;
#X connect 56 0 55 0;
#X connect 57 0 54 0;
#X connect 58 0 52 0;
#X connect 59 0 57 1;
#X connect 60 0 59 0;
#X connect 60 1 58 0;
#X connect 60 2 57 0;
#X connect 61 0 62 0;
#X connect 62 0 56 0;
#X connect 64 0 14 0;
#X connect 64 1 15 0;
#X connect 64 2 65 0;
#X connect 65 0 147 0;
#X connect 66 0 83 0;
#X connect 67 0 84 0;
#X connect 68 0 85 0;
#X connect 69 0 86 0;
#X connect 70 0 74 0;
#X connect 70 0 90 0;
#X connect 71 0 74 1;
#X connect 72 0 75 1;
#X connect 73 0 76 1;
#X connect 73 0 89 0;
#X connect 74 0 75 0;
#X connect 75 0 76 0;
#X connect 76 0 77 0;
#X connect 77 0 79 0;
#X connect 78 0 148 0;
#X connect 79 0 78 0;
#X connect 80 0 88 0;
#X connect 83 0 70 0;
#X connect 84 0 71 0;
#X connect 85 0 72 0;
#X connect 86 0 73 0;
#X connect 87 0 93 0;
#X connect 88 0 95 0;
#X connect 89 0 92 0;
#X connect 90 0 87 0;
#X connect 92 0 81 0;
#X connect 93 0 82 0;
#X connect 99 0 101 0;
#X connect 99 0 102 0;
#X connect 100 0 99 0;
#X connect 102 0 99 1;
#X connect 103 1 104 0;
#X connect 104 0 94 0;
#X connect 109 0 113 0;
#X connect 110 0 113 1;
#X connect 111 0 114 1;
#X connect 112 0 115 1;
#X connect 113 0 114 0;
#X connect 114 0 115 0;
#X connect 115 0 128 0;
#X connect 116 0 131 0;
#X connect 117 0 109 0;
#X connect 118 0 110 0;
#X connect 119 0 111 0;
#X connect 120 0 112 0;
#X connect 121 0 122 0;
#X connect 122 0 124 0;
#X connect 123 0 122 1;
#X connect 124 0 126 0;
#X connect 125 0 124 1;
#X connect 126 0 129 0;
#X connect 127 0 126 1;
#X connect 128 0 134 0;
#X connect 129 0 128 1;
#X connect 130 0 133 0;
#X connect 131 0 130 0;
#X connect 132 0 116 0;
#X connect 134 0 132 0;
#X connect 135 0 117 0;
#X connect 135 0 121 0;
#X connect 136 0 123 0;
#X connect 136 0 118 0;
#X connect 137 0 119 0;
#X connect 137 0 125 0;
#X connect 138 0 120 0;
#X connect 138 0 127 0;
#X connect 142 0 139 0;
#X connect 143 0 146 0;
#X connect 144 0 142 0;
#X connect 145 0 143 0;
#X connect 148 0 80 0;
#X connect 150 0 151 0;
#X connect 151 0 19 0;
#X connect 152 0 98 0;
#X connect 153 0 152 0;
#X connect 154 0 153 0;
#X coords 0 -1 1 1 700 350 1 100 100;
