#N canvas 959 106 960 973 10;
#N canvas 235 201 863 826 SYNTH 0;
#X floatatom 269 246 5 0 0 0 - - -, f 5;
#X obj 284 290 *;
#X obj 269 312 +;
#X obj 342 354 phasor~;
#X obj 269 198 mtof;
#X floatatom 511 345 5 0 0 0 - - -, f 5;
#X text 588 346 center frequency;
#X text 342 498 q;
#X floatatom 321 517 5 0 0 0 - - -, f 5;
#X msg 645 295 \$1 50;
#X obj 582 315 line~;
#X floatatom 582 292 5 0 0 0 - - -, f 5;
#X obj 582 269 * 10000;
#X obj 213 625 *~;
#X floatatom 101 118 5 0 0 0 - - -, f 5;
#X floatatom 101 168 5 0 0 0 - - -, f 5;
#X obj 284 267 * 0;
#X obj 101 140 / 60;
#X obj 217 556 vcf~ 2;
#X obj 187 673 dac~ 1 2;
#X msg 412 464 1;
#X obj 460 444 loadbang;
#X obj 262 39;
#X floatatom 690 121 5 0 0 0 - - -, f 5;
#X obj 728 62 r BONG_PAD_PRESSURE;
#X floatatom 728 85 5 0 0 0 - - -, f 5;
#X obj 728 107 * 127;
#X obj 322 62 r BONG_IMU_pitch;
#X floatatom 322 85 5 0 0 0 - - -, f 5;
#X obj 322 107 / 90;
#X floatatom 322 153 5 0 0 0 - - -, f 5;
#X obj 269 223 - 0;
#X obj 322 130 * 40;
#X connect 0 0 2 0;
#X connect 0 0 16 0;
#X connect 1 0 2 1;
#X connect 2 0 3 0;
#X connect 3 0 18 0;
#X connect 4 0 31 0;
#X connect 8 0 18 2;
#X connect 9 0 10 0;
#X connect 10 0 18 1;
#X connect 12 0 9 0;
#X connect 12 0 11 0;
#X connect 13 0 19 0;
#X connect 13 0 19 1;
#X connect 14 0 17 0;
#X connect 15 0 13 1;
#X connect 16 0 1 0;
#X connect 17 0 15 0;
#X connect 18 0 13 0;
#X connect 20 0 8 0;
#X connect 21 0 20 0;
#X connect 24 0 25 0;
#X connect 25 0 26 0;
#X connect 25 0 12 0;
#X connect 26 0 23 0;
#X connect 27 0 28 0;
#X connect 28 0 29 0;
#X connect 29 0 32 0;
#X connect 31 0 0 0;
#X connect 32 0 4 0;
#X connect 32 0 30 0;
#X restore 811 649 pd SYNTH;
#X text 105 15 First creation argument: IP-address of the desired device
;
#X obj 107 45 BINBONG_receiver_new_imu 103;
#X floatatom 277 533 5 0 0 0 - - -, f 5;
#X obj 197 659 packOSC;
#X obj 307 724 udpsend;
#X msg 362 671 connect localhost 57120;
#X obj 47 461 r BONG_IMU_pitch;
#X floatatom 47 507 5 0 0 0 - - -, f 5;
#X msg 369 696 disconnect;
#X msg 9 594 /spat/spre 0 \$1;
#X obj 47 484 / 90;
#X msg 71 550 /spat/spre 1 \$1;
#X obj 277 440 r BONG_IMU_head;
#X msg 197 608 /hoa/azim 0 \$1;
#X msg 307 608 /hoa/azim 1 \$1;
#X obj 277 463 + 0;
#X obj 277 486 + 0.5;
#X connect 3 0 15 0;
#X connect 3 0 14 0;
#X connect 4 0 5 0;
#X connect 6 0 5 0;
#X connect 7 0 11 0;
#X connect 8 0 10 0;
#X connect 8 0 12 0;
#X connect 9 0 5 0;
#X connect 10 0 4 0;
#X connect 11 0 8 0;
#X connect 12 0 4 0;
#X connect 13 0 16 0;
#X connect 14 0 4 0;
#X connect 15 0 4 0;
#X connect 16 0 17 0;
#X connect 17 0 3 0;
