#N canvas 1056 351 1192 868 10;
#X text 912 153 Set source 1 in AED:;
#X msg 206 577 /source/azim \$1 \$2;
#X msg 457 562 /source/elev \$1 \$2;
#X msg 709 562 /source/dist \$1 \$2;
#X obj 206 527 pack i f;
#X obj 206 477 \$1;
#X obj 457 637 send DATA;
#X obj 457 512 pack i f;
#X obj 251 477 \$2;
#X obj 457 446 \$1;
#X obj 502 446 \$3;
#X obj 709 512 pack i f;
#X obj 709 446 \$1;
#X obj 754 446 \$4;
#X obj 223 415 r SET;
#X obj 473 383 r SET;
#X obj 726 384 r SET;
#X connect 1 0 6 0;
#X connect 2 0 6 0;
#X connect 3 0 6 0;
#X connect 4 0 1 0;
#X connect 5 0 4 0;
#X connect 7 0 2 0;
#X connect 8 0 4 1;
#X connect 9 0 7 0;
#X connect 10 0 7 1;
#X connect 11 0 3 0;
#X connect 12 0 11 0;
#X connect 13 0 11 1;
#X connect 14 0 5 0;
#X connect 14 0 8 0;
#X connect 15 0 9 0;
#X connect 15 0 10 0;
#X connect 16 0 12 0;
#X connect 16 0 13 0;
