#N canvas 1061 106 739 973 10;
#X declare -lib Gem;
#X obj 492 74 declare -lib Gem;
#X obj 1071 972 gb-speaker;
#X obj 505 444 gemwin;
#X msg 368 380 create \, 1;
#X msg 449 373 destroy;
#N canvas 87 154 247 179 Gem.init 0;
#X obj 59 46 loadbang;
#X msg 118 81 reset;
#X obj 118 113 outlet;
#X obj 59 65 t b b;
#X connect 0 0 3 0;
#X connect 1 0 2 0;
#X connect 3 1 1 0;
#X restore 544 350 pd Gem.init;
#X msg 505 278 reset \, dimen 888 888 \, create \, 1;
#X obj 505 245 loadbang;
#X obj 354 593 udpreceive;
#X obj 354 506 loadbang;
#X obj 354 635 unpackOSC;
#X obj 354 680 s spatial_data;
#X obj 489 653 print;
#X msg 354 552 port 9494;
#X obj 94 534 panoramix-plotter 1 0 0 1;
#X obj 65 856 draw-space -1.5 3 1.5 3 3 1 3 -1 1.5 -3 -1.5 -3 -3 -1
-3 1;
#X obj 94 765 panoramix-plotter 8 0 1 0;
#X obj 94 732 panoramix-plotter 7 0 1 0;
#X obj 94 567 panoramix-plotter 2 0 0 1;
#X obj 94 600 panoramix-plotter 3 1 1 0;
#X obj 94 633 panoramix-plotter 4 1 1 0;
#X obj 94 666 panoramix-plotter 5 1 0 1;
#X obj 94 699 panoramix-plotter 6 1 0 1;
#X connect 3 0 2 0;
#X connect 4 0 2 0;
#X connect 5 0 2 0;
#X connect 6 0 2 0;
#X connect 7 0 6 0;
#X connect 8 0 10 0;
#X connect 9 0 13 0;
#X connect 10 0 11 0;
#X connect 10 0 12 0;
#X connect 13 0 8 0;
#X coords 0 973 1 972 2000 2000 0;
