#N canvas 516 541 1340 712 12;
#X text 912 153 Set source 1 in AED:;
#X text 24 29 Patch for testing remote control of the SC servers.;
#X msg 206 562 /source/azim \$1 \$2;
#X msg 457 560 /source/elev \$1 \$2;
#X msg 709 555 /source/dist \$1 \$2;
#X floatatom 259 405 5 0 0 0 - - -;
#X obj 206 512 pack i f;
#X obj 206 477 \$1;
#X obj 206 448 bang;
#X obj 457 637 send DATA;
#X floatatom 515 408 5 0 0 0 - - -;
#X obj 462 515 pack i f;
#X obj 462 480 \$1;
#X obj 462 451 bang;
#X obj 384 157 metro 500;
#X obj 259 375 line;
#X msg 259 346 \$1 500;
#X obj 260 218 random 6;
#X obj 347 111 bng 15 250 50 0 empty empty empty 17 7 0 10 -262144
-1 -1;
#X obj 515 377 line;
#X msg 515 348 \$1 500;
#X obj 512 213 random 6;
#X obj 384 132 r START_RANDOM;
#X obj 260 316 +;
#X obj 286 247 bang;
#X obj 286 272 \$1;
#X obj 509 309 +;
#X obj 535 240 bang;
#X obj 535 265 \$1;
#X connect 2 0 9 0;
#X connect 3 0 9 0;
#X connect 4 0 9 0;
#X connect 5 0 8 0;
#X connect 5 0 6 1;
#X connect 6 0 2 0;
#X connect 7 0 6 0;
#X connect 8 0 7 0;
#X connect 10 0 13 0;
#X connect 10 0 11 1;
#X connect 11 0 3 0;
#X connect 12 0 11 0;
#X connect 13 0 12 0;
#X connect 14 0 17 0;
#X connect 14 0 21 0;
#X connect 15 0 5 0;
#X connect 16 0 15 0;
#X connect 17 0 23 0;
#X connect 17 0 24 0;
#X connect 18 0 14 0;
#X connect 19 0 10 0;
#X connect 20 0 19 0;
#X connect 21 0 27 0;
#X connect 21 0 26 0;
#X connect 22 0 14 0;
#X connect 23 0 16 0;
#X connect 24 0 25 0;
#X connect 25 0 23 1;
#X connect 26 0 20 0;
#X connect 27 0 28 0;
#X connect 28 0 26 1;
