#N canvas 516 365 1340 712 12;
#X text 912 153 Set source 1 in AED:;
#X text 24 29 Patch for testing remote control of the SC servers.;
#X msg 206 562 /source/azim \$1 \$2;
#X msg 457 560 /source/elev \$1 \$2;
#X msg 709 555 /source/dist \$1 \$2;
#X floatatom 259 405 5 0 0 0 - - -, f 5;
#X obj 206 512 pack i f;
#X obj 206 477 \$1;
#X obj 206 448 bang;
#X obj 457 637 send DATA;
#X floatatom 515 408 5 0 0 0 - - -, f 5;
#X obj 462 515 pack i f;
#X obj 462 480 \$1;
#X obj 462 451 bang;
#X obj 500 130 metro 500;
#X obj 259 375 line;
#X obj 515 377 line;
#X obj 500 105 r START_RANDOM;
#X floatatom 759 409 5 0 0 0 - - -, f 5;
#X obj 706 516 pack i f;
#X obj 706 481 \$1;
#X obj 706 452 bang;
#X obj 759 378 line;
#X obj 514 243 random 1;
#X obj 757 205 random 0.1;
#X obj 757 239 + 0.5;
#X obj 647 110 r RATE;
#X obj 259 306 pack f i;
#X obj 312 272 r RATE;
#X obj 516 303 pack f i;
#X obj 569 269 r RATE;
#X obj 754 302 pack f i;
#X obj 807 268 r RATE;
#X obj 259 246 random 6.3;
#X obj 259 271 - 3.15;
#X msg 259 346 \$1 \$2;
#X msg 515 348 \$1 \$2;
#X msg 759 349 \$1 \$2;
#X connect 2 0 9 0;
#X connect 3 0 9 0;
#X connect 4 0 9 0;
#X connect 5 0 8 0;
#X connect 5 0 6 1;
#X connect 6 0 2 0;
#X connect 7 0 6 0;
#X connect 8 0 7 0;
#X connect 10 0 13 0;
#X connect 10 0 11 1;
#X connect 11 0 3 0;
#X connect 12 0 11 0;
#X connect 13 0 12 0;
#X connect 14 0 23 0;
#X connect 14 0 24 0;
#X connect 14 0 33 0;
#X connect 15 0 5 0;
#X connect 16 0 10 0;
#X connect 17 0 14 0;
#X connect 18 0 21 0;
#X connect 18 0 19 1;
#X connect 19 0 4 0;
#X connect 20 0 19 0;
#X connect 21 0 20 0;
#X connect 22 0 18 0;
#X connect 23 0 29 0;
#X connect 24 0 25 0;
#X connect 25 0 31 0;
#X connect 26 0 14 1;
#X connect 27 0 35 0;
#X connect 28 0 27 1;
#X connect 29 0 36 0;
#X connect 30 0 29 1;
#X connect 31 0 37 0;
#X connect 32 0 31 1;
#X connect 33 0 34 0;
#X connect 34 0 27 0;
#X connect 35 0 15 0;
#X connect 36 0 16 0;
#X connect 37 0 22 0;
