#N canvas 1360 421 739 796 10;
#X declare -path visualization;
#X declare -lib Gem;
#X obj 561 255 udpreceive;
#X obj 561 168 loadbang;
#X obj 561 297 unpackOSC;
#X obj 561 342 s spatial_data;
#X obj 22 34 declare -path visualization;
#X obj 24 171 draw_center;
#X text 261 33 Visualize point sources from sc_spat_binaural;
#X obj 22 58 declare -lib Gem;
#X text 23 95 First argument sets the number of sources (+1);
#X obj 183 603 gemwin;
#X msg 46 539 create \, 1;
#X msg 127 532 destroy;
#N canvas 87 154 247 179 Gem.init 0;
#X obj 59 46 loadbang;
#X msg 118 81 reset;
#X obj 118 113 outlet;
#X obj 59 65 t b b;
#X connect 0 0 3 0;
#X connect 1 0 2 0;
#X connect 3 1 1 0;
#X restore 189 460 pd Gem.init;
#X obj 298 407 t b b;
#X obj 215 358 loadbang;
#X msg 311 479 border 1;
#X msg 377 478 dimen 1222 1222 \, create \, 1 \, title SC_SPAT-Sourece-Visualizer
;
#X obj 86 301 gemhead;
#X msg 127 252 rotate 1 1 0;
#X obj 23 120 source_array 17;
#X msg 561 214 port 9595;
#X connect 0 0 2 0;
#X connect 1 0 20 0;
#X connect 2 0 3 0;
#X connect 10 0 9 0;
#X connect 11 0 9 0;
#X connect 12 0 9 0;
#X connect 13 0 15 0;
#X connect 13 1 16 0;
#X connect 14 0 13 0;
#X connect 15 0 9 0;
#X connect 16 0 9 0;
#X connect 18 0 17 0;
#X connect 20 0 0 0;
#X coords 0 796 1 795 2000 2000 0;
