#N canvas 1110 507 739 796 10;
#X declare -lib Gem;
#X declare -path visualization;
#X obj 22 58 declare -lib Gem;
#X obj 481 279 gemwin;
#X msg 344 215 create \, 1;
#X msg 425 208 destroy;
#N canvas 87 154 247 179 Gem.init 0;
#X obj 59 46 loadbang;
#X msg 118 81 reset;
#X obj 118 113 outlet;
#X obj 59 65 t b b;
#X connect 0 0 3 0;
#X connect 1 0 2 0;
#X connect 3 1 1 0;
#X restore 520 185 pd Gem.init;
#X msg 481 113 reset \, dimen 888 888 \, create \, 1;
#X obj 481 80 loadbang;
#X obj 548 458 udpreceive;
#X obj 548 371 loadbang;
#X obj 548 500 unpackOSC;
#X obj 548 545 s spatial_data;
#X msg 548 417 port 9494;
#X obj 22 34 declare -path visualization;
#X obj 22 724 _panoramix-plotter 2 0 0 1;
#X obj 24 685 _draw-space -1.5 3 1.5 3 3 1 3 -1 1.5 -3 -1.5 -3 -3 -1
-3 1;
#X obj 24 650 _sc_spat_plotter 1 1 0 1;
#X obj 24 619 _sc_spat_plotter 0 0 0 1;
#X obj 23 120 source_array;
#X connect 2 0 1 0;
#X connect 3 0 1 0;
#X connect 4 0 1 0;
#X connect 5 0 1 0;
#X connect 6 0 5 0;
#X connect 7 0 9 0;
#X connect 8 0 11 0;
#X connect 9 0 10 0;
#X connect 11 0 7 0;
#X coords 0 796 1 795 2000 2000 0;
