#N canvas 1633 191 739 1029 10;
#X declare -path visualization;
#X declare -lib Gem;
#X obj 561 488 udpreceive;
#X obj 561 401 loadbang;
#X obj 561 530 unpackOSC;
#X obj 561 575 s spatial_data;
#X obj 22 267 declare -path visualization;
#X text 261 266 Visualize point sources from sc_spat_binaural;
#X obj 22 291 declare -lib Gem;
#X text 23 328 First argument sets the number of sources (+1);
#X obj 154 978 gemwin;
#X msg 17 914 create \, 1;
#X msg 12 819 destroy;
#N canvas 87 154 247 179 Gem.init 0;
#X obj 59 46 loadbang;
#X msg 118 81 reset;
#X obj 118 113 outlet;
#X obj 59 65 t b b;
#X connect 0 0 3 0;
#X connect 1 0 2 0;
#X connect 3 1 1 0;
#X restore 160 835 pd Gem.init;
#X obj 339 710 loadbang;
#X msg 282 854 border 1;
#X msg 561 447 port 9595;
#X obj 24 404 :draw_center;
#X msg 348 853 dimen 888 888 \, create \, 1 \, title SC_SPAT-Sourece-Visualizer
;
#X msg 79 791 color 1 1 1;
#X obj 50 531 gemhead;
#X msg 52 484 rotate 1 1 0;
#X obj 48 669 pix_draw;
#X obj 50 638 translateXYZ;
#X floatatom 131 595 5 0 0 0 - - -, f 5;
#X obj 52 562 pix_image head_small_N.jpg;
#X obj 190 1179 world_light;
#X msg 329 1137 1 1 1;
#X msg 276 1135 1 0 1;
#X text 380 1131 change the lights color;
#X obj 190 1127 rotateXYZ;
#X floatatom 281 1070 0 0 0 0 - - -;
#X msg 57 1095 debug 0;
#X msg 58 1126 debug 1;
#X obj 175 1072 gemhead;
#X obj 23 353 source_array 8;
#X msg 237 667 lighting 1;
#X obj 240 632 loadbang;
#X obj 350 745 t b b b;
#X connect 0 0 2 0;
#X connect 1 0 14 0;
#X connect 2 0 3 0;
#X connect 9 0 8 0;
#X connect 10 0 8 0;
#X connect 11 0 8 0;
#X connect 12 0 36 0;
#X connect 13 0 8 0;
#X connect 14 0 0 0;
#X connect 16 0 8 0;
#X connect 17 0 8 0;
#X connect 18 0 23 0;
#X connect 19 0 18 0;
#X connect 21 0 20 0;
#X connect 22 0 21 3;
#X connect 23 0 21 0;
#X connect 25 0 24 1;
#X connect 26 0 24 1;
#X connect 28 0 24 0;
#X connect 29 0 28 2;
#X connect 30 0 24 0;
#X connect 31 0 24 0;
#X connect 32 0 28 0;
#X connect 34 0 8 0;
#X connect 35 0 34 0;
#X connect 36 0 13 0;
#X connect 36 0 17 0;
#X connect 36 1 17 0;
#X connect 36 1 34 0;
#X connect 36 2 16 0;
#X coords 0 1029 1 1028 2000 2000 0;
