#N canvas 691 367 1358 722 12;
#X obj 894 490 r DATA;
#X obj 894 619 udpsend;
#X msg 964 577 disconnect;
#X msg 961 551 connect localhost 57120;
#X obj 894 515 packOSC;
#N canvas 55 413 450 300 sub 1;
#X obj 100 80 single_random 1;
#X obj 100 120 single_random 2;
#X obj 100 160 single_random 3;
#X obj 100 200 single_random 4;
#X obj 100 240 single_random 5;
#X obj 100 280 single_random 6;
#X obj 100 320 single_random 7;
#X obj 100 360 single_random 8;
#X obj 100 400 single_random 9;
#X obj 100 440 single_random 10;
#X obj 100 480 single_random 11;
#X obj 100 520 single_random 12;
#X obj 100 560 single_random 13;
#X obj 100 600 single_random 14;
#X obj 100 640 single_random 15;
#X obj 100 680 single_random 16;
#X obj 100 720 single_random 17;
#X obj 100 760 single_random 18;
#X obj 100 800 single_random 19;
#X obj 100 840 single_random 20;
#X obj 100 880 single_random 21;
#X obj 100 920 single_random 22;
#X obj 100 960 single_random 23;
#X obj 100 1000 single_random 24;
#X obj 100 1040 single_random 25;
#X obj 100 1080 single_random 26;
#X obj 100 1120 single_random 27;
#X obj 100 1160 single_random 28;
#X obj 100 1200 single_random 29;
#X obj 100 1240 single_random 30;
#X obj 100 1280 single_random 31;
#X obj 100 1320 single_random 32;
#X obj 100 1360 single_random 33;
#X obj 100 1400 single_random 34;
#X obj 100 1440 single_random 35;
#X obj 100 1480 single_random 36;
#X obj 100 1520 single_random 37;
#X obj 100 1560 single_random 38;
#X obj 100 1600 single_random 39;
#X obj 100 1640 single_random 40;
#X obj 100 1680 single_random 41;
#X obj 100 1720 single_random 42;
#X obj 100 1760 single_random 43;
#X obj 100 1800 single_random 44;
#X obj 100 1840 single_random 45;
#X obj 100 1880 single_random 46;
#X obj 100 1920 single_random 47;
#X obj 100 1960 single_random 48;
#X obj 100 2000 single_random 49;
#X obj 100 2040 single_random 50;
#X obj 100 2080 single_random 51;
#X obj 100 2120 single_random 52;
#X obj 100 2160 single_random 53;
#X obj 100 2200 single_random 54;
#X obj 100 2240 single_random 55;
#X obj 100 2280 single_random 56;
#X obj 100 2320 single_random 57;
#X obj 100 2360 single_random 58;
#X obj 100 2400 single_random 59;
#X obj 100 2440 single_random 60;
#X obj 100 2480 single_random 61;
#X obj 100 2520 single_random 62;
#X restore 110 125 pd sub;
#X obj 335 124 s START_RANDOM;
#X obj 344 72 bng 15 250 50 0 empty empty empty 17 7 0 10 -262144 -1
-1;
#X msg 158 540 vis 1 \, editmode 1;
#X obj 221 345 + 1;
#X floatatom 183 369 5 0 0 0 - - -;
#X obj 183 293 tgl 15 0 empty empty empty 17 7 0 10 -262144 -1 -1 0
1;
#X obj 112 222 loadbang;
#X msg 300 275 0;
#X obj 295 649 s pd-angles;
#X msg 70 341 \; pd-sub clear;
#X obj 112 245 t b b;
#X obj 142 416 * 40;
#X obj 183 317 metro 10;
#X obj 183 391 - 0;
#X obj 183 346 i 1;
#X msg 311 583 \; pd-sub obj 100 \$1 single_random \$2;
#X obj 294 489 pack i i, f 26;
#X obj 255 345 moses 64;
#X connect 0 0 4 0;
#X connect 2 0 1 0;
#X connect 3 0 1 0;
#X connect 4 0 1 0;
#X connect 7 0 6 0;
#X connect 8 0 14 0;
#X connect 9 0 23 0;
#X connect 10 0 17 0;
#X connect 10 0 19 0;
#X connect 11 0 18 0;
#X connect 12 0 16 0;
#X connect 13 0 11 0;
#X connect 16 0 15 0;
#X connect 16 1 11 0;
#X connect 17 0 22 0;
#X connect 18 0 20 0;
#X connect 19 0 22 1;
#X connect 20 0 10 0;
#X connect 20 0 9 0;
#X connect 21 0 14 0;
#X connect 22 0 21 0;
#X connect 23 0 20 1;
#X connect 23 1 13 0;
