#N canvas 1218 280 894 722 12;
#X obj 26 342 r DATA;
#X obj 26 471 udpsend;
#X msg 96 429 disconnect;
#X obj 26 367 packOSC;
#N canvas 55 358 450 300 sub 0;
#X obj 100 40 single_random 0;
#X obj 100 80 single_random 1;
#X obj 100 120 single_random 2;
#X obj 100 160 single_random 3;
#X obj 100 200 single_random 4;
#X obj 100 240 single_random 5;
#X obj 100 280 single_random 6;
#X obj 100 320 single_random 7;
#X obj 100 360 single_random 8;
#X obj 100 400 single_random 9;
#X obj 100 440 single_random 10;
#X obj 100 480 single_random 11;
#X obj 100 520 single_random 12;
#X obj 100 560 single_random 13;
#X obj 100 600 single_random 14;
#X obj 100 640 single_random 15;
#X obj 100 680 single_random 16;
#X obj 100 720 single_random 17;
#X obj 100 760 single_random 18;
#X obj 100 800 single_random 19;
#X obj 100 840 single_random 20;
#X obj 100 880 single_random 21;
#X obj 100 920 single_random 22;
#X obj 100 960 single_random 23;
#X obj 100 1000 single_random 24;
#X obj 100 1040 single_random 25;
#X obj 100 1080 single_random 26;
#X obj 100 1120 single_random 27;
#X obj 100 1160 single_random 28;
#X obj 100 1200 single_random 29;
#X obj 100 1240 single_random 30;
#X obj 100 1280 single_random 31;
#X obj 100 1320 single_random 32;
#X obj 100 1360 single_random 33;
#X obj 100 1400 single_random 34;
#X obj 100 1440 single_random 35;
#X obj 100 1480 single_random 36;
#X obj 100 1520 single_random 37;
#X obj 100 1560 single_random 38;
#X obj 100 1600 single_random 39;
#X obj 100 1640 single_random 40;
#X obj 100 1680 single_random 41;
#X obj 100 1720 single_random 42;
#X obj 100 1760 single_random 43;
#X obj 100 1800 single_random 44;
#X obj 100 1840 single_random 45;
#X obj 100 1880 single_random 46;
#X obj 100 1920 single_random 47;
#X obj 100 1960 single_random 48;
#X obj 100 2000 single_random 49;
#X obj 100 2040 single_random 50;
#X obj 100 2080 single_random 51;
#X obj 100 2120 single_random 52;
#X obj 100 2160 single_random 53;
#X obj 100 2200 single_random 54;
#X obj 100 2240 single_random 55;
#X obj 100 2280 single_random 56;
#X obj 100 2320 single_random 57;
#X obj 100 2360 single_random 58;
#X obj 100 2400 single_random 59;
#X obj 100 2440 single_random 60;
#X obj 100 2480 single_random 61;
#X obj 100 2520 single_random 62;
#X obj 100 2560 single_random 63;
#X obj 100 2600 single_random 64;
#X obj 100 2640 single_random 65;
#X obj 100 2680 single_random 66;
#X obj 100 2720 single_random 67;
#X obj 100 2760 single_random 68;
#X obj 100 2800 single_random 69;
#X obj 100 2840 single_random 70;
#X obj 100 2880 single_random 71;
#X obj 100 2920 single_random 72;
#X obj 100 2960 single_random 73;
#X obj 100 3000 single_random 74;
#X obj 100 3040 single_random 75;
#X obj 100 3080 single_random 76;
#X obj 100 3120 single_random 77;
#X obj 100 3160 single_random 78;
#X obj 100 3200 single_random 79;
#X obj 100 3240 single_random 80;
#X obj 100 3280 single_random 81;
#X obj 100 3320 single_random 82;
#X obj 100 3360 single_random 83;
#X obj 100 3400 single_random 84;
#X obj 100 3440 single_random 85;
#X obj 100 3480 single_random 86;
#X obj 100 3520 single_random 87;
#X obj 100 3560 single_random 88;
#X obj 100 3600 single_random 89;
#X obj 100 3640 single_random 90;
#X obj 100 3680 single_random 91;
#X obj 100 3720 single_random 92;
#X obj 100 3760 single_random 93;
#X obj 100 3800 single_random 94;
#X obj 100 3840 single_random 95;
#X obj 100 3880 single_random 96;
#X obj 100 3920 single_random 97;
#X obj 100 3960 single_random 98;
#X obj 100 4000 single_random 99;
#X obj 100 4040 single_random 100;
#X obj 100 4080 single_random 101;
#X obj 100 4120 single_random 102;
#X restore 17 85 pd sub;
#X obj 236 227 s START_RANDOM;
#X obj 236 194 bng 33 250 50 0 empty empty empty 17 7 0 33 -4034 -1
-1;
#X msg 93 403 connect localhost 57121;
#X text 14 15 Two abstractions for generating a number of source automations:
;
#X text 235 161 Press for starting automatic movements:;
#N canvas 403 699 450 300 auto-patch 0;
#X msg 158 540 vis 1 \, editmode 1;
#X obj 221 345 + 1;
#X floatatom 183 369 5 0 0 0 - - -, f 5;
#X obj 183 293 tgl 15 0 empty empty empty 17 7 0 10 -262144 -1 -1 0
1;
#X obj 112 222 loadbang;
#X msg 300 275 0;
#X obj 295 649 s pd-angles;
#X msg 70 341 \; pd-sub clear;
#X obj 112 245 t b b;
#X obj 142 416 * 40;
#X obj 183 317 metro 10;
#X obj 183 391 - 0;
#X msg 311 583 \; pd-sub obj 100 \$1 single_random \$2;
#X obj 294 489 pack i i, f 26;
#X obj 183 346 i 0;
#X obj 255 345 moses 104;
#X connect 0 0 6 0;
#X connect 1 0 15 0;
#X connect 2 0 9 0;
#X connect 2 0 11 0;
#X connect 3 0 10 0;
#X connect 4 0 8 0;
#X connect 5 0 3 0;
#X connect 8 0 7 0;
#X connect 8 1 3 0;
#X connect 9 0 13 0;
#X connect 10 0 14 0;
#X connect 11 0 13 1;
#X connect 12 0 6 0;
#X connect 13 0 12 0;
#X connect 14 0 2 0;
#X connect 14 0 1 0;
#X connect 15 0 14 1;
#X connect 15 1 5 0;
#X restore 17 56 pd auto-patch 104;
#X connect 0 0 3 0;
#X connect 2 0 1 0;
#X connect 3 0 1 0;
#X connect 6 0 5 0;
#X connect 7 0 1 0;
