#N canvas 0 106 1920 974 10;
#X obj 349 663 dac~ 1 2 3 4 5 6 7 8;
#X floatatom 297 421 5 0 0 0 - - -, f 5;
#X obj 317 25 line;
#X msg 465 -124 100 1000;
#X msg 296 -47 1;
#X obj 465 -57 delay 1000;
#X obj 395 24 delay 1;
#X obj 382 215 osc~;
#X obj 223 252 *~ 50;
#X obj 214 343 snapshot~;
#X obj 306 232 metro 10;
#X obj 312 188 tgl 15 0 empty empty empty 17 7 0 10 -262144 -1 -1 0
1;
#X floatatom 74 188 5 0 0 0 - - -, f 5;
#X obj 404 552 lop~;
#X floatatom 454 495 5 0 0 0 - - -, f 5;
#X obj 855 366 osc~;
#X floatatom 905 301 5 0 0 0 - - -, f 5;
#X obj 855 389 +~ 1;
#X obj 855 412 *~ 50;
#X obj 846 503 snapshot~;
#X obj 938 392 metro 10;
#X obj 944 348 tgl 15 0 empty empty empty 17 7 0 10 -262144 -1 -1 0
1;
#X floatatom 706 348 5 0 0 0 - - -, f 5;
#X obj 840 533 moog~;
#X obj 297 443 osc~;
#X floatatom 317 48 5 0 0 0 - - -, f 5;
#X obj 360 114 *;
#X floatatom 427 77 5 0 0 0 - - -, f 5;
#X obj 378 260 +~ 0;
#X obj 405 152 +;
#X floatatom 538 85 5 0 0 0 - - -, f 5;
#X obj 746 52 line;
#X msg 725 -20 1;
#X obj 824 51 delay 1;
#X floatatom 746 75 5 0 0 0 - - -, f 5;
#X obj 789 141 *;
#X floatatom 856 104 5 0 0 0 - - -, f 5;
#X obj 894 -30 delay 10000;
#X msg 894 -97 100 9000;
#X obj 1234 43 osc~;
#X floatatom 1284 -22 5 0 0 0 - - -, f 5;
#X obj 1234 66 +~ 1;
#X obj 1234 89 *~ 50;
#X obj 1225 180 snapshot~;
#X obj 1317 69 metro 10;
#X obj 1323 25 tgl 15 0 empty empty empty 17 7 0 10 -262144 -1 -1 0
1;
#X floatatom 1085 25 5 0 0 0 - - -, f 5;
#X floatatom 1225 203 5 0 0 0 - - -, f 5;
#X connect 1 0 24 0;
#X connect 2 0 25 0;
#X connect 3 0 2 0;
#X connect 3 0 5 0;
#X connect 4 0 2 0;
#X connect 5 0 6 0;
#X connect 5 0 4 0;
#X connect 6 0 3 0;
#X connect 7 0 28 0;
#X connect 8 0 9 0;
#X connect 9 0 1 0;
#X connect 10 0 9 0;
#X connect 11 0 10 0;
#X connect 12 0 8 1;
#X connect 13 0 0 0;
#X connect 13 0 0 1;
#X connect 13 0 0 2;
#X connect 13 0 0 3;
#X connect 13 0 0 4;
#X connect 13 0 0 5;
#X connect 13 0 0 6;
#X connect 13 0 0 7;
#X connect 14 0 13 1;
#X connect 15 0 17 0;
#X connect 16 0 15 0;
#X connect 17 0 18 0;
#X connect 18 0 19 0;
#X connect 19 0 14 0;
#X connect 20 0 19 0;
#X connect 21 0 20 0;
#X connect 22 0 18 1;
#X connect 25 0 26 0;
#X connect 26 0 29 0;
#X connect 27 0 26 1;
#X connect 28 0 13 0;
#X connect 29 0 7 0;
#X connect 30 0 29 1;
#X connect 31 0 34 0;
#X connect 32 0 31 0;
#X connect 33 0 38 0;
#X connect 34 0 35 0;
#X connect 35 0 30 0;
#X connect 36 0 35 1;
#X connect 37 0 33 0;
#X connect 37 0 32 0;
#X connect 38 0 31 0;
#X connect 38 0 37 0;
#X connect 39 0 41 0;
#X connect 40 0 39 0;
#X connect 41 0 42 0;
#X connect 42 0 43 0;
#X connect 43 0 47 0;
#X connect 44 0 43 0;
#X connect 45 0 44 0;
#X connect 46 0 42 1;
#X connect 47 0 36 0;
