#N canvas 312 331 450 537 10;
#X obj 211 33 noise~;
#X msg 253 87 set \$1;
#X floatatom 284 47 5 0 0 0 - - -, f 5;
#X obj 172 151 dac~ 2;
#X obj 312 191 metro 500;
#X obj 314 147 tgl 15 0 empty empty empty 17 7 0 10 -262144 -1 -1 0
1;
#X obj 128 355 i;
#X msg 227 414 1;
#X floatatom 270 435 5 0 0 0 - - -, f 5;
#X floatatom 364 337 5 0 0 0 - - -, f 5;
#X obj 321 380 + 1;
#X obj 273 338 moses 9;
#X floatatom 357 132 5 0 0 0 - - -, f 5;
#X obj 211 56 *~ 0.1;
#X obj 79 152 lop~;
#X floatatom 88 57 5 0 0 0 - - -, f 5;
#X connect 0 0 13 0;
#X connect 1 0 3 0;
#X connect 2 0 1 0;
#X connect 4 0 6 0;
#X connect 5 0 4 0;
#X connect 6 0 11 0;
#X connect 7 0 6 0;
#X connect 8 0 1 0;
#X connect 10 0 6 1;
#X connect 11 0 8 0;
#X connect 11 0 10 0;
#X connect 11 1 7 0;
#X connect 11 1 9 0;
#X connect 12 0 4 1;
#X connect 13 0 14 0;
#X connect 15 0 14 1;
