#N canvas 855 106 1064 973 10;
#X obj 520 937 udpsend;
#X obj 799 578 packOSC;
#X floatatom 652 502 5 0 0 0 - - -, f 5;
#X msg 590 869 connect localhost 57120;
#X msg 592 895 disconnect;
#X floatatom 246 259 5 0 0 0 - - -, f 5;
#X obj 319 742 packOSC;
#X floatatom 102 531 5 0 0 0 - - -, f 5;
#X obj 102 508 / 90;
#X msg 126 574 /spat/spre 1 \$1;
#X obj 246 235 * 1;
#X obj 246 212 + 0.3;
#X floatatom 102 485 5 0 0 0 - - -, f 5;
#X floatatom 246 188 5 0 0 0 - - -, f 5;
#X msg 24 575 /spat/spre 0 \$1;
#X floatatom 557 219 5 0 0 0 - - -, f 5;
#X msg 614 362 /hoa/azim 1 \$1;
#X floatatom 629 218 5 0 0 0 - - -, f 5;
#X floatatom 597 143 5 0 0 0 - - -, f 5;
#X msg 504 362 /hoa/azim 0 \$1;
#X msg 193 331 /spat/azim 0 \$1;
#X msg 303 331 /spat/azim 1 \$1;
#X msg 652 534 /route/spatial 0 0 \$1;
#X obj 802 432 pack i i f;
#X msg 789 464 /route/spatial \$1 \$2 \$3;
#X msg 853 271 0 \, 1 \, 2 \, 3 \, 4 \, 5;
#X msg 859 384 1;
#X obj 802 300 bng 15 250 50 0 empty empty empty 17 7 0 10 -262144
-1 -1;
#X msg 782 383 6;
#X msg 817 384 6;
#X msg 825 511 /route/spatial 7 7 1;
#X connect 1 0 0 0;
#X connect 2 0 22 0;
#X connect 3 0 0 0;
#X connect 4 0 0 0;
#X connect 5 0 21 0;
#X connect 5 0 20 0;
#X connect 6 0 0 0;
#X connect 7 0 9 0;
#X connect 7 0 14 0;
#X connect 8 0 7 0;
#X connect 9 0 6 0;
#X connect 10 0 5 0;
#X connect 11 0 10 0;
#X connect 12 0 8 0;
#X connect 13 0 11 0;
#X connect 14 0 6 0;
#X connect 15 0 19 0;
#X connect 16 0 6 0;
#X connect 17 0 16 0;
#X connect 18 0 15 0;
#X connect 18 0 17 0;
#X connect 19 0 6 0;
#X connect 20 0 6 0;
#X connect 21 0 6 0;
#X connect 22 0 1 0;
#X connect 23 0 24 0;
#X connect 24 0 1 0;
#X connect 26 0 23 2;
#X connect 27 0 28 0;
#X connect 27 0 29 0;
#X connect 27 0 26 0;
#X connect 28 0 23 0;
#X connect 29 0 23 1;
#X connect 30 0 1 0;
