#N canvas 273 153 2044 829 10;
#X obj 520 937 udpsend;
#X obj 799 578 packOSC;
#X msg 590 869 connect localhost 57120;
#X msg 592 895 disconnect;
#X floatatom 246 259 5 0 0 0 - - -, f 5;
#X obj 319 742 packOSC;
#X floatatom 102 531 5 0 0 0 - - -, f 5;
#X obj 102 508 / 90;
#X msg 126 574 /spat/spre 1 \$1;
#X obj 246 235 * 1;
#X obj 246 212 + 0.3;
#X floatatom 102 485 5 0 0 0 - - -, f 5;
#X floatatom 246 188 5 0 0 0 - - -, f 5;
#X msg 24 575 /spat/spre 0 \$1;
#X floatatom 557 219 5 0 0 0 - - -, f 5;
#X msg 614 362 /hoa/azim 1 \$1;
#X floatatom 629 218 5 0 0 0 - - -, f 5;
#X floatatom 597 143 5 0 0 0 - - -, f 5;
#X msg 504 362 /hoa/azim 0 \$1;
#X msg 193 331 /spat/azim 0 \$1;
#X msg 303 331 /spat/azim 1 \$1;
#X obj 1141 586 packOSC;
#X floatatom 804 429 5 0 0 0 - - -, f 5;
#X floatatom 1145 432 5 0 0 0 - - -, f 5;
#X msg 803 469 /send/gain/common 1 0 \$1;
#X msg 1146 476 /send/gain/individual 1 0 \$1;
#X connect 1 0 0 0;
#X connect 2 0 0 0;
#X connect 3 0 0 0;
#X connect 4 0 20 0;
#X connect 4 0 19 0;
#X connect 5 0 0 0;
#X connect 6 0 8 0;
#X connect 6 0 13 0;
#X connect 7 0 6 0;
#X connect 8 0 5 0;
#X connect 9 0 4 0;
#X connect 10 0 9 0;
#X connect 11 0 7 0;
#X connect 12 0 10 0;
#X connect 13 0 5 0;
#X connect 14 0 18 0;
#X connect 15 0 5 0;
#X connect 16 0 15 0;
#X connect 17 0 14 0;
#X connect 17 0 16 0;
#X connect 18 0 5 0;
#X connect 19 0 5 0;
#X connect 20 0 5 0;
#X connect 21 0 0 0;
#X connect 22 0 24 0;
#X connect 23 0 25 0;
#X connect 24 0 1 0;
#X connect 25 0 21 0;
